<svg xmlns="http://www.w3.org/2000/svg" viewBox="0 0 512 512" role="img" aria-label="Wye Cabins">
  <rect width="512" height="512" rx="96" fill="#e8e4d4"/>
  <defs>
    <clipPath id="lh"><rect x="0" y="0" width="277.79" height="470"/></clipPath>
    <g id="emb" fill="#1d1d1b">
      <polygon points="331.07 384.27 400.13 384.27 367.29 204.6 331.07 384.27"/>
      <path d="M194.32,192.37l38.68,191.9h43.79c.35,0,.69.04,1.01.12.32-.08.66-.12,1.01-.12h43.79l38.68-191.87h-82.47c-.35,0-.68-.04-.99-.13h0s0,0-.01,0c-.32.08-.66.13-1.01.13l-82.47-.04Z"/>
      <path d="M195.87,184.11h80.92c.35,0,.69.05,1.01.13.32-.09.66-.13,1.01-.13l80.95.03h0s-81.96-99.6-81.96-99.6l-81.93,99.57Z"/>
      <polygon points="141.67 384.27 55.9 384.27 55.9 220.75 141.67 384.27"/>
      <polygon points="180.37 193.57 146.95 376.48 58.56 207.95 180.37 193.57"/>
      <polygon points="259.07 92.4 182.92 184.94 182.91 184.95 70.38 198.21 70.39 198.21 259.07 92.4"/>
      <polygon points="223.02 384.27 153.96 384.27 186.8 204.6 223.02 384.27"/>
    </g>
  </defs>
  <g transform="translate(66 127.67) scale(0.8563) translate(-55.9 -84.54)">
    <use href="#emb" clip-path="url(#lh)"/>
    <g transform="matrix(-1 0 0 1 555.58 0)">
      <use href="#emb" clip-path="url(#lh)"/>
    </g>
  </g>
</svg>
