<?xml version="1.0" encoding="UTF-8"?>
<svg id="Layer_1" data-name="Layer 1" xmlns="http://www.w3.org/2000/svg" viewBox="0 0 1819.66 586.84">
  <defs>
    <style>
      .cls-1 {
        letter-spacing: -.05em;
      }

      .cls-1, .cls-2 {
        font-family: AbrilFatface-Regular, 'Abril Fatface';
        font-size: 268.01px;
      }

      .cls-1, .cls-2, .cls-3 {
        fill: #1d1d1b;
      }
    </style>
  </defs>
  <polygon class="cls-3" points="331.07 384.27 400.13 384.27 367.29 204.6 331.07 384.27"/>
  <path class="cls-3" d="M194.32,192.37l38.68,191.9h43.79c.35,0,.69.04,1.01.12.32-.08.66-.12,1.01-.12h43.79l38.68-191.87h-82.47c-.35,0-.68-.04-.99-.13h0s0,0-.01,0c-.32.08-.66.13-1.01.13l-82.47-.04Z"/>
  <path class="cls-3" d="M195.87,184.11h80.92c.35,0,.69.05,1.01.13.32-.09.66-.13,1.01-.13l80.95.03h0s-81.96-99.6-81.96-99.6l-81.93,99.57Z"/>
  <polygon class="cls-3" points="141.67 384.27 55.9 384.27 55.9 220.75 141.67 384.27"/>
  <polygon class="cls-3" points="180.37 193.57 146.95 376.48 58.56 207.95 180.37 193.57"/>
  <polygon class="cls-3" points="259.07 92.4 182.92 184.94 182.91 184.95 70.38 198.21 70.39 198.21 259.07 92.4"/>
  <polygon class="cls-3" points="223.02 384.27 153.96 384.27 186.8 204.6 223.02 384.27"/>
  <text/>
  <text class="cls-2" transform="translate(373.63 381.51)"><tspan x="0" y="0">W</tspan></text>
  <path class="cls-3" d="M466.26,184.24c-25.06-12.1-50.71-25.05-76.9-38.93-33.13-17.56-64.58-35.28-94.35-52.9,0,0,68.58,83.35,75.57,91.84h95.67Z"/>
  <polyline class="cls-3" points="375.24 204.6 412.42 384.27 447.35 384.39 383.95 204.6"/>
  <text/>
  <text/>
  <text/>
  <text class="cls-2" transform="translate(963.67 392.43)"><tspan x="0" y="0">Cabins</tspan></text>
  <text class="cls-1" transform="translate(612.24 384.39)"><tspan x="0" y="0">ye</tspan></text>
  <rect class="cls-3" x="1059.76" y="388.02" width="706" height="7.08"/>
</svg>